<svg width="80" height="80" viewBox="0 0 80 80" fill="none" xmlns="http://www.w3.org/2000/svg">
<path d="M39.2333 37.4667H33.1867V27.34H40.36C44.26 27.34 46.4733 29.08 46.4733 32.2267C46.4733 35.5867 43.8967 37.4667 39.2267 37.4667H39.2333ZM40.3133 41.4867H33.19V52.6467H40.6267C45.49 52.6467 48.0667 50.6967 48.0667 47.03C48.0667 43.3633 45.4167 41.4867 40.3133 41.4867ZM80 37.9667V42.0267C76.24 42.3867 73.9433 45.1733 72.58 49.5867C71.2233 53.9833 71.0367 59.3767 71.18 63.54C71.33 67.8733 67.9533 71.8733 63.39 71.8733H16.6167C12.05 71.8733 8.67333 67.8733 8.82667 63.54C8.97 59.3767 8.78333 53.9833 7.42667 49.5867C6.06 45.1733 3.76 42.3867 0 42.0267V37.9667C3.76 37.6067 6.06333 34.82 7.42333 30.4067C8.78333 26.01 8.97 20.6167 8.82333 16.4533C8.67333 12.12 12.05 8.12 16.6167 8.12H63.39C67.9567 8.12 71.33 12.12 71.18 16.4533C71.0367 20.6167 71.2233 26.01 72.58 30.4067C73.9433 34.82 76.24 37.6067 80 37.9667ZM53.5767 47.3567C53.5767 42.8433 50.4 39.58 45.6833 39.0633V38.8733C49.15 38.31 51.87 35.09 51.87 31.4967C51.87 26.3733 47.8267 23.0367 41.6633 23.0367H27.7967V56.9433H41.7333C49.1267 56.9433 53.5767 53.3233 53.5767 47.3567Z" fill="#F8F8F8"/>
</svg>
