<svg width="80" height="80" viewBox="0 0 80 80" fill="none" xmlns="http://www.w3.org/2000/svg">
<path d="M40 10H30C27.3478 10 24.8043 11.0536 22.9289 12.9289C21.0536 14.8043 20 17.3478 20 20C20 22.6522 21.0536 25.1957 22.9289 27.0711C24.8043 28.9464 27.3478 30 30 30H40M40 10V30M40 10H50C52.6522 10 55.1957 11.0536 57.0711 12.9289C58.9464 14.8043 60 17.3478 60 20C60 22.6522 58.9464 25.1957 57.0711 27.0711C55.1957 28.9464 52.6522 30 50 30H40" stroke="#F8F8F8" stroke-width="1.5" stroke-linecap="round" stroke-linejoin="round"/>
<path d="M30 50C27.3478 50 24.8043 51.0536 22.9289 52.9289C21.0536 54.8043 20 57.3478 20 60C20 62.6522 21.0536 65.1957 22.9289 67.0711C24.8043 68.9464 27.3478 70 30 70C32.6522 70 35.1957 68.9464 37.0711 67.0711C38.9464 65.1957 40 62.6522 40 60V50M30 50H40M30 50C27.3478 50 24.8043 48.9464 22.9289 47.0711C21.0536 45.1957 20 42.6522 20 40C20 37.3478 21.0536 34.8043 22.9289 32.9289C24.8043 31.0536 27.3478 30 30 30H40V50M40 40C40 37.3478 41.0536 34.8043 42.9289 32.9289C44.8043 31.0536 47.3478 30 50 30C52.6522 30 55.1957 31.0536 57.0711 32.9289C58.9464 34.8043 60 37.3478 60 40C60 42.6522 58.9464 45.1957 57.0711 47.0711C55.1957 48.9464 52.6522 50 50 50C47.3478 50 44.8043 48.9464 42.9289 47.0711C41.0536 45.1957 40 42.6522 40 40Z" stroke="#F8F8F8" stroke-width="1.5" stroke-linecap="round" stroke-linejoin="round"/>
</svg>
