<svg width="67" height="67" viewBox="0 0 67 67" fill="none" xmlns="http://www.w3.org/2000/svg">
<path d="M1.975 28.6083L21.2417 9.30833L26.875 14.975C26.075 17.8083 27.375 20.9083 29.975 22.4083V40.875C27.975 42.0083 26.6417 44.175 26.6417 46.6417C26.6417 48.4098 27.344 50.1055 28.5943 51.3557C29.8445 52.606 31.5402 53.3083 33.3083 53.3083C35.0764 53.3083 36.7721 52.606 38.0224 51.3557C39.2726 50.1055 39.975 48.4098 39.975 46.6417C39.975 44.175 38.6417 42.0083 36.6417 40.875V24.675L43.5417 31.6417C43.3083 32.1417 43.3083 32.7083 43.3083 33.3083C43.3083 35.0764 44.0107 36.7721 45.261 38.0224C46.5112 39.2726 48.2069 39.975 49.975 39.975C51.7431 39.975 53.4388 39.2726 54.689 38.0224C55.9393 36.7721 56.6417 35.0764 56.6417 33.3083C56.6417 31.5402 55.9393 29.8445 54.689 28.5943C53.4388 27.344 51.7431 26.6417 49.975 26.6417C49.375 26.6417 48.8083 26.6417 48.3083 26.875L39.7417 18.3083C40.1556 16.7645 39.9951 15.1228 39.2901 13.6883C38.5851 12.2538 37.3835 11.1239 35.9083 10.5083C34.475 9.975 32.975 9.84167 31.6417 10.2083L25.975 4.575L28.6083 1.975C31.2083 -0.658333 35.4083 -0.658333 38.0083 1.975L64.6417 28.6083C67.275 31.2083 67.275 35.4083 64.6417 38.0083L38.0083 64.6417C35.4083 67.275 31.2083 67.275 28.6083 64.6417L1.975 38.0083C-0.658333 35.4083 -0.658333 31.2083 1.975 28.6083Z" fill="white"/>
</svg>
