<svg width="52" height="52" viewBox="0 0 52 52" fill="none" xmlns="http://www.w3.org/2000/svg">
<path d="M22.0565 36.8507C22.3165 36.8507 22.5137 36.842 22.6437 36.8247C22.7962 36.7938 22.9337 36.7121 23.0337 36.5928C23.1637 36.4563 23.2287 36.2592 23.2287 35.9992L23.22 34.7923C23.2135 34.0232 23.2113 33.4122 23.2113 32.9637L22.804 33.0352C22.4781 33.0865 22.148 33.1068 21.8182 33.0958C21.4038 33.0885 20.9908 33.0472 20.5832 32.9723C20.1506 32.8917 19.7436 32.709 19.3958 32.4393C19.0313 32.1636 18.7593 31.7835 18.6158 31.3495L18.4382 30.94C18.2887 30.6175 18.1011 30.3142 17.8792 30.0365C17.68 29.7518 17.4145 29.5198 17.1057 29.3605L16.9822 29.2738C16.8971 29.2112 16.82 29.1384 16.7525 29.0572C16.687 28.9833 16.633 28.9001 16.5922 28.8102C16.5575 28.7278 16.5857 28.6585 16.6788 28.6065C16.8424 28.5408 17.0188 28.5134 17.1945 28.5263L17.5498 28.5805C17.7882 28.626 18.0807 28.769 18.4295 29.0052C18.7762 29.2435 19.0643 29.549 19.2897 29.9282C19.5627 30.4135 19.8898 30.784 20.2755 31.0375C20.6159 31.2776 21.0204 31.4104 21.4368 31.4188C21.8268 31.4188 22.1648 31.3907 22.4487 31.3322C22.725 31.2749 22.9934 31.1847 23.2482 31.0635C23.3543 30.2727 23.6425 29.6617 24.1148 29.237C23.5017 29.1763 22.894 29.0691 22.297 28.9163C21.7142 28.7557 21.1537 28.5228 20.6287 28.223C20.0788 27.9247 19.593 27.5213 19.1987 27.0357C18.8217 26.5612 18.5118 25.9415 18.267 25.1723C18.0117 24.3083 17.8897 23.4103 17.9052 22.5095C17.9052 21.0795 18.3732 19.8597 19.307 18.8543C18.8693 17.7775 18.9105 16.5707 19.4305 15.2338C19.775 15.1255 20.2842 15.2057 20.958 15.4722C21.6318 15.7387 22.128 15.9662 22.44 16.1568C22.7542 16.3453 23.0033 16.5035 23.194 16.6335C24.3037 16.3253 25.4505 16.1708 26.6022 16.1742C27.7722 16.1742 28.9097 16.3258 30.0103 16.6357L30.682 16.2088C31.1457 15.9272 31.6895 15.665 32.3157 15.4288C32.944 15.1905 33.4228 15.1255 33.7543 15.2338C34.2873 16.5707 34.335 17.7775 33.8952 18.8522C34.8312 19.8597 35.2992 21.0773 35.2992 22.5095C35.2992 23.5148 35.1778 24.4053 34.9352 25.181C34.6925 25.9567 34.3783 26.5763 33.9948 27.0443C33.5941 27.5252 33.1059 27.9258 32.5562 28.2252C32.0312 28.525 31.4707 28.7579 30.8878 28.9185C30.2901 29.0707 29.6817 29.1772 29.0678 29.237C29.6832 29.7678 29.9908 30.6085 29.9908 31.7568V35.997C29.9908 36.1985 30.0212 36.361 30.0797 36.4867C30.1072 36.5465 30.1465 36.6002 30.1953 36.6445C30.2441 36.6888 30.3013 36.7228 30.3635 36.7445C30.4935 36.79 30.6105 36.8203 30.7102 36.8312C30.812 36.8442 30.955 36.8507 31.1435 36.8507H22.0565Z" fill="white"/>
<path d="M25.9999 43.3333C30.597 43.3333 35.0058 41.5071 38.2564 38.2565C41.5071 35.0059 43.3332 30.5971 43.3332 26C43.3332 21.4029 41.5071 16.9941 38.2564 13.7435C35.0058 10.4929 30.597 8.66667 25.9999 8.66667C21.4028 8.66667 16.994 10.4929 13.7434 13.7435C10.4928 16.9941 8.66658 21.4029 8.66658 26C8.66658 30.5971 10.4928 35.0059 13.7434 38.2565C16.994 41.5071 21.4028 43.3333 25.9999 43.3333ZM25.9999 47.6667C14.0334 47.6667 4.33325 37.9665 4.33325 26C4.33325 14.0335 14.0334 4.33334 25.9999 4.33334C37.9664 4.33334 47.6666 14.0335 47.6666 26C47.6666 37.9665 37.9664 47.6667 25.9999 47.6667Z" fill="white"/>
</svg>
