<svg width="80" height="68" viewBox="0 0 80 68" fill="none" xmlns="http://www.w3.org/2000/svg">
<path d="M40 59.2308C58.4095 59.2308 73.3333 47.8657 73.3333 33.8462C73.3333 19.8266 58.4095 8.46155 40 8.46155C21.5905 8.46155 6.66666 19.8266 6.66666 33.8462C6.66666 47.8657 21.5905 59.2308 40 59.2308Z" stroke="#F8F8F8" stroke-width="2" stroke-linecap="round" stroke-linejoin="round"/>
<path d="M18.3333 42.3077L19.65 36.74L21.6667 28.2052H26.0667C26.5505 28.2053 27.0285 28.2947 27.4675 28.4669C27.9065 28.6392 28.2958 28.8902 28.6086 29.2026C28.9213 29.515 29.15 29.8813 29.2786 30.276C29.4072 30.6707 29.4327 31.0843 29.3533 31.4882L28.7967 34.3087C28.6673 34.9673 28.266 35.5657 27.6641 35.9975C27.0623 36.4293 26.299 36.6664 25.51 36.6667H20M51.6667 42.3077L52.9833 36.74L55 28.2052H59.4C59.8839 28.2053 60.3619 28.2947 60.8008 28.4669C61.2398 28.6392 61.6292 28.8902 61.9419 29.2026C62.2547 29.515 62.4833 29.8813 62.6119 30.276C62.7405 30.6707 62.766 31.0843 62.6867 31.4882L62.13 34.3087C62.0006 34.9673 61.5993 35.5657 60.9975 35.9975C60.3957 36.4293 59.6323 36.6664 58.8433 36.6667H53.3333M40 21.1539L36.6667 36.6667M38.6667 28.2052H46.6667L45 36.6667" stroke="#F8F8F8" stroke-width="2" stroke-linecap="round" stroke-linejoin="round"/>
</svg>
