<svg width="52" height="52" viewBox="0 0 52 52" fill="none" xmlns="http://www.w3.org/2000/svg">
<path d="M34.5153 22.3029C35.3904 21.7627 35.9747 21.0293 36.2582 20.0931C35.4565 20.5271 34.5961 20.8425 33.7038 21.0293C33.3389 20.628 32.8922 20.3096 32.3937 20.0958C31.8953 19.882 31.3567 19.7777 30.8144 19.79C29.6802 19.79 28.7244 20.1884 27.9422 20.9609C27.5653 21.3286 27.2674 21.7692 27.0665 22.2559C26.8656 22.7426 26.766 23.2651 26.7738 23.7916C26.7738 24.1264 26.8153 24.4271 26.9009 24.6813C23.5569 24.564 20.7922 23.1804 18.6118 20.5111C18.2541 21.119 18.0628 21.8103 18.0569 22.5156C18.0569 23.9284 18.6533 25.048 19.8413 25.8718C19.2171 25.8296 18.6089 25.6554 18.0569 25.3609C18.0569 26.3704 18.3527 27.2138 18.9491 27.9569C19.5431 28.6902 20.3107 29.1596 21.2444 29.3576C20.8969 29.4455 20.5396 29.4891 20.1811 29.4871C19.9364 29.5011 19.6913 29.4705 19.4576 29.3967C19.7118 30.2204 20.1811 30.8853 20.8607 31.3962C21.5378 31.9096 22.32 32.1784 23.2 32.2029C21.7875 33.3259 20.0299 33.9253 18.2256 33.8993C17.766 33.8993 17.4433 33.8944 17.2478 33.8578C19.0803 35.0497 21.2243 35.6731 23.4102 35.6496C25.7349 35.6496 27.7907 35.0604 29.5751 33.8822C31.3596 32.7113 32.682 31.2667 33.5278 29.5629C34.3652 27.9166 34.8016 26.0957 34.8013 24.2487V23.7378C35.6227 23.1193 36.29 22.4227 36.8009 21.6502C36.0736 21.9745 35.3042 22.1943 34.5153 22.3029ZM26.5 48.5C20.4133 48.5 15.17 46.3244 10.9142 42.032C6.65844 37.7518 4.5 32.5256 4.5 26.5C4.5 20.4182 6.66089 15.1724 10.9216 10.9167C15.1749 6.66089 20.4158 4.5 26.5 4.5C32.528 4.5 37.7542 6.65844 42.032 10.9142C46.3244 15.1724 48.5 20.4182 48.5 26.5C48.5 32.5256 46.3269 37.7542 42.0369 42.0393C37.7567 46.3244 32.5304 48.5 26.5 48.5ZM26.5 9.38889C21.6942 9.38889 17.7293 11.0193 14.3804 14.3756C11.0193 17.7293 9.38889 21.6942 9.38889 26.5C9.38889 31.252 11.0218 35.2071 14.3829 38.5878C17.7367 41.9684 21.6991 43.6111 26.5 43.6111C31.2496 43.6111 35.2022 41.966 38.5804 38.5829C41.966 35.1998 43.6111 31.2447 43.6111 26.5C43.6111 21.7016 41.9684 17.7367 38.5878 14.3829C35.2071 11.0218 31.2544 9.38889 26.5 9.38889Z" fill="#F8F8F8"/>
</svg>
