<svg width="52" height="52" viewBox="0 0 52 52" fill="none" xmlns="http://www.w3.org/2000/svg">
<path d="M36.8332 28.4483V36.4585H32.19V28.9835C32.19 27.1072 31.5183 25.8267 29.837 25.8267C28.5543 25.8267 27.7895 26.689 27.4537 27.5253C27.3323 27.8243 27.2998 28.2403 27.2998 28.6563V36.4585H22.6545C22.6545 36.4585 22.7173 23.8008 22.6545 22.49H27.2998V24.4682L27.2695 24.5137H27.2998V24.4682C27.9173 23.5148 29.018 22.1607 31.4858 22.1607C34.5408 22.1607 36.8332 24.1583 36.8332 28.4483ZM17.7947 15.7538C16.2065 15.7538 15.1665 16.7982 15.1665 18.1675C15.1665 19.5108 16.1762 20.5833 17.734 20.5833H17.7643C19.385 20.5833 20.3925 19.5087 20.3925 18.1675C20.3622 16.7982 19.385 15.7538 17.7947 15.7538ZM15.4417 36.4585H20.087V22.49H15.4417V36.4585Z" fill="white"/>
<path d="M25.9999 43.3333C30.597 43.3333 35.0058 41.5071 38.2564 38.2565C41.5071 35.0059 43.3332 30.5971 43.3332 26C43.3332 21.4029 41.5071 16.9941 38.2564 13.7435C35.0058 10.4929 30.597 8.66667 25.9999 8.66667C21.4028 8.66667 16.994 10.4929 13.7434 13.7435C10.4928 16.9941 8.66658 21.4029 8.66658 26C8.66658 30.5971 10.4928 35.0059 13.7434 38.2565C16.994 41.5071 21.4028 43.3333 25.9999 43.3333ZM25.9999 47.6667C14.0334 47.6667 4.33325 37.9665 4.33325 26C4.33325 14.0335 14.0334 4.33334 25.9999 4.33334C37.9664 4.33334 47.6666 14.0335 47.6666 26C47.6666 37.9665 37.9664 47.6667 25.9999 47.6667Z" fill="white"/>
</svg>
