<svg width="60" height="60" viewBox="0 0 60 60" fill="none" xmlns="http://www.w3.org/2000/svg">
<path d="M36.6667 27.5C36.6667 24.28 39.28 21.6667 42.5 21.6667H47.5C48.163 21.6667 48.7989 21.9301 49.2678 22.3989C49.7366 22.8677 50 23.5036 50 24.1667C50 24.8297 49.7366 25.4656 49.2678 25.9344C48.7989 26.4033 48.163 26.6667 47.5 26.6667H42.5C42.279 26.6667 42.067 26.7545 41.9107 26.9107C41.7545 27.067 41.6667 27.279 41.6667 27.5V32.5C41.6667 32.96 42.04 33.3333 42.5 33.3333H44.1667C47.3867 33.3333 50 35.9467 50 39.1667V44.1667C50 45.7138 49.3854 47.1975 48.2915 48.2915C47.1975 49.3854 45.7138 50 44.1667 50H39.1667C38.5036 50 37.8677 49.7366 37.3989 49.2678C36.9301 48.7989 36.6667 48.163 36.6667 47.5C36.6667 46.837 36.9301 46.2011 37.3989 45.7322C37.8677 45.2634 38.5036 45 39.1667 45H44.1667C44.3877 45 44.5996 44.9122 44.7559 44.7559C44.9122 44.5996 45 44.3877 45 44.1667V39.1667C45 38.9457 44.9122 38.7337 44.7559 38.5774C44.5996 38.4211 44.3877 38.3333 44.1667 38.3333H42.5C40.9529 38.3333 39.4692 37.7188 38.3752 36.6248C37.2812 35.5308 36.6667 34.0471 36.6667 32.5V27.5ZM32.5 24.1667C32.5 23.5036 32.2366 22.8677 31.7678 22.3989C31.2989 21.9301 30.663 21.6667 30 21.6667C29.337 21.6667 28.7011 21.9301 28.2322 22.3989C27.7634 22.8677 27.5 23.5036 27.5 24.1667V44.1667C27.5 44.3877 27.4122 44.5996 27.2559 44.7559C27.0996 44.9122 26.8877 45 26.6667 45H22.5C21.837 45 21.2011 45.2634 20.7322 45.7322C20.2634 46.2011 20 46.837 20 47.5C20 48.163 20.2634 48.7989 20.7322 49.2678C21.2011 49.7366 21.837 50 22.5 50H26.6667C28.2138 50 29.6975 49.3854 30.7915 48.2915C31.8854 47.1975 32.5 45.7138 32.5 44.1667V24.1667ZM0 10.8333V49.1667C0 52.0398 1.14137 54.7953 3.17301 56.827C5.20465 58.8586 7.96015 60 10.8333 60H49.1667C52.0398 60 54.7953 58.8586 56.827 56.827C58.8586 54.7953 60 52.0398 60 49.1667V10.8333C60 7.96015 58.8586 5.20465 56.827 3.17301C54.7953 1.14137 52.0398 0 49.1667 0H10.8333C7.96015 0 5.20465 1.14137 3.17301 3.17301C1.14137 5.20465 0 7.96015 0 10.8333ZM10.8333 5H49.1667C52.3867 5 55 7.61333 55 10.8333V49.1667C55 50.7138 54.3854 52.1975 53.2915 53.2915C52.1975 54.3854 50.7138 55 49.1667 55H10.8333C9.28624 55 7.80251 54.3854 6.70854 53.2915C5.61458 52.1975 5 50.7138 5 49.1667V10.8333C5 7.61333 7.61333 5 10.8333 5Z" fill="#F8F8F8"/>
</svg>
