<svg width="24" height="34" viewBox="0 0 24 34" fill="none" xmlns="http://www.w3.org/2000/svg">
<path d="M11.8393 16.15C10.7179 16.15 9.64237 15.7022 8.84941 14.9052C8.05645 14.1082 7.61097 13.0272 7.61097 11.9C7.61097 10.7728 8.05645 9.69183 8.84941 8.8948C9.64237 8.09777 10.7179 7.65 11.8393 7.65C12.9607 7.65 14.0362 8.09777 14.8292 8.8948C15.6221 9.69183 16.0676 10.7728 16.0676 11.9C16.0676 12.4581 15.9582 13.0108 15.7457 13.5264C15.5332 14.042 15.2218 14.5106 14.8292 14.9052C14.4365 15.2999 13.9704 15.6129 13.4574 15.8265C12.9444 16.0401 12.3946 16.15 11.8393 16.15ZM11.8393 0C8.69931 0 5.68794 1.25375 3.46765 3.48543C1.24735 5.71711 0 8.74392 0 11.9C0 20.825 11.8393 34 11.8393 34C11.8393 34 23.6786 20.825 23.6786 11.9C23.6786 8.74392 22.4312 5.71711 20.2109 3.48543C17.9906 1.25375 14.9793 0 11.8393 0Z" fill="#52D8FF"/>
</svg>
