<svg width="74" height="81" viewBox="0 0 74 81" fill="none" xmlns="http://www.w3.org/2000/svg">
<path d="M36.6667 80.8561C35.5267 80.8561 34.4667 80.5557 33.4767 80.036L23.38 74.1701C21.8633 73.3533 22.6233 73.0563 23.08 72.9078C25.1267 72.2396 25.5067 72.0911 27.6333 70.8997C27.86 70.7512 28.1667 70.8254 28.3933 70.9739L36.1367 75.5066C36.4367 75.6551 36.82 75.6551 37.0467 75.5066L67.3367 58.3478C67.6367 58.1993 67.79 57.9022 67.79 57.531V23.2875C67.79 22.9162 67.64 22.6192 67.3367 22.4707L37.0467 5.38946C36.7433 5.24095 36.3633 5.24095 36.1367 5.38946L5.84667 22.4707C5.54333 22.6192 5.39 22.9905 5.39 23.2875V57.531C5.39 57.828 5.54333 58.1993 5.84667 58.3478L14.12 63.029C18.6 65.2565 21.4067 62.6577 21.4067 60.0589V26.2609C21.4067 25.8154 21.7867 25.3699 22.32 25.3699H26.19C26.6467 25.3699 27.1 25.7412 27.1 26.2609V60.0555C27.1 65.9248 23.8367 69.3404 18.1433 69.3404C16.3967 69.3404 15.03 69.3404 11.16 67.4841L3.19 63.029C2.22961 62.4943 1.42761 61.7097 0.866823 60.7562C0.306036 59.8027 0.00679292 58.715 0 57.6052V23.3617C0 21.1342 1.21333 19.0551 3.19 17.9414L33.48 0.779105C34.4661 0.26706 35.5584 0 36.6667 0C37.7749 0 38.8672 0.26706 39.8533 0.779105L70.1467 17.938C72.12 19.0518 73.3333 21.1308 73.3333 23.3584V57.6019C73.3333 59.8294 72.12 61.9085 70.1467 63.0256L39.8533 80.1811C38.8476 80.6226 37.7629 80.85 36.6667 80.8494V80.8561ZM46.0033 57.3082C32.72 57.3082 29.9867 51.3681 29.9867 46.3156C29.9867 45.8701 30.3667 45.4246 30.8967 45.4246H34.8433C35.3 45.4246 35.6767 45.7216 35.6767 46.1671C36.2867 50.1025 38.0333 52.033 46.08 52.033C52.4567 52.033 55.19 50.6222 55.19 47.2809C55.19 45.3503 54.43 43.9396 44.4867 42.9743C36.21 42.1542 31.05 40.3755 31.05 33.9122C31.05 27.8945 36.21 24.327 44.8667 24.327C54.5833 24.327 59.3667 27.5975 59.9733 34.729C59.9666 34.9704 59.8862 35.2038 59.7433 35.3973C59.5933 35.5458 59.3667 35.6943 59.1367 35.6943H55.19C54.9983 35.6896 54.8133 35.6218 54.6629 35.5013C54.5126 35.3807 54.4051 35.2139 54.3567 35.026C53.4433 30.9422 51.09 29.6022 44.8667 29.6022C37.88 29.6022 37.0467 31.9783 37.0467 33.7603C37.0467 35.917 38.0333 36.5853 47.4467 37.7733C56.7833 38.9613 61.1867 40.6691 61.1867 47.0548C61.11 53.5957 55.6467 57.3082 46.0033 57.3082Z" fill="white"/>
</svg>
