<svg width="80" height="80" viewBox="0 0 80 80" fill="none" xmlns="http://www.w3.org/2000/svg">
<path d="M41.94 11.63C47.1366 7.65334 53.26 5.31667 58.3333 8.24667C63.4067 11.1733 64.4466 17.6467 63.6 24.1333C63.5 24.9367 63.3633 25.7633 63.1966 26.6067C64.01 26.8867 64.7966 27.1833 65.54 27.4933C71.58 30.0067 76.6666 34.1433 76.6666 40C76.6666 45.8567 71.58 49.9933 65.54 52.5067C64.7933 52.8167 64.01 53.1133 63.1966 53.3933C63.3633 54.2367 63.4967 55.06 63.6 55.8667C64.4466 62.3533 63.4067 68.8267 58.3333 71.7533C53.2633 74.6833 47.1333 72.3467 41.94 68.3733C41.2766 67.8641 40.6296 67.3338 40 66.7833C39.35 67.35 38.7033 67.88 38.06 68.3733C32.8666 72.3467 26.74 74.6833 21.6666 71.7533C16.5966 68.8267 15.5566 62.3533 16.4 55.8667C16.5092 55.0381 16.6448 54.2132 16.8066 53.3933C15.99 53.1133 15.2066 52.8167 14.46 52.5067C8.41998 49.9933 3.33331 45.8567 3.33331 40C3.33331 34.1433 8.41998 30.0067 14.46 27.4933C15.2066 27.1833 15.9933 26.8867 16.8066 26.6067C16.64 25.7633 16.5066 24.94 16.4 24.1333C15.5566 17.6467 16.5966 11.1733 21.6666 8.24667C26.74 5.31667 32.8666 7.65334 38.06 11.6267C38.7033 12.12 39.35 12.65 40 13.2167C40.65 12.65 41.3 12.12 41.94 11.63ZM23.2666 55.1233C23.1666 55.6733 23.0833 56.21 23.0133 56.7267C22.2366 62.7033 23.7 65.2267 25.0033 65.98C26.31 66.7333 29.2266 66.74 34.0133 63.08C34.4431 62.7498 34.8644 62.4085 35.2766 62.0567C33.6325 60.1927 32.0849 58.2457 30.64 56.2233C28.165 55.9829 25.704 55.6157 23.2666 55.1233ZM56.7433 55.1233C54.4433 55.59 51.9833 55.9633 49.37 56.2233C47.8366 58.3567 46.2866 60.3033 44.7333 62.0567C45.1566 62.42 45.58 62.7567 45.9933 63.0767C50.78 66.74 53.7 66.7333 55.0033 65.98C56.31 65.2267 57.77 62.7033 56.9933 56.7267C56.9236 56.1902 56.8402 55.6556 56.7433 55.1233ZM40 30C38.0266 30 36.1333 30.06 34.3266 30.17C33.3266 31.68 32.3266 33.2933 31.34 35.0033C30.3924 36.6421 29.4953 38.3096 28.65 40.0033C29.4566 41.6233 30.3533 43.29 31.34 45C32.3266 46.71 33.3233 48.32 34.3266 49.8333C38.1067 50.0561 41.8966 50.0561 45.6766 49.8333C46.6766 48.32 47.6766 46.71 48.66 45C49.6086 43.3612 50.5068 41.6938 51.3533 40C50.5068 38.3062 49.6086 36.6388 48.66 35C47.7152 33.3599 46.7203 31.7491 45.6766 30.17C43.7866 30.0559 41.8935 29.9992 40 30ZM18.5333 33.0667C18.0241 33.2486 17.5195 33.4431 17.02 33.65C11.4533 35.9633 9.99998 38.4933 9.99998 40C9.99998 41.5067 11.4566 44.0367 17.02 46.35C17.5033 46.55 18.01 46.7467 18.5333 46.9333C19.3264 44.577 20.2399 42.2628 21.27 40C20.241 37.7371 19.3254 35.423 18.5333 33.0667ZM61.4667 33.0667C60.6746 35.423 59.7623 37.7371 58.7333 40C59.8133 42.39 60.7267 44.71 61.4667 46.9333C61.9759 46.7517 62.4805 46.5572 62.98 46.35C68.5466 44.0367 70 41.5067 70 40C70 38.4933 68.5466 35.9667 62.98 33.65C62.4806 33.4427 61.976 33.2482 61.4667 33.0667ZM40 35C41.3261 35 42.5978 35.5268 43.5355 36.4645C44.4732 37.4022 45 38.6739 45 40C45 41.3261 44.4732 42.5979 43.5355 43.5355C42.5978 44.4732 41.3261 45 40 45C38.6739 45 37.4021 44.4732 36.4644 43.5355C35.5268 42.5979 35 41.3261 35 40C35 38.6739 35.5268 37.4022 36.4644 36.4645C37.4021 35.5268 38.6739 35 40 35ZM25 14.02C23.6966 14.7733 22.2333 17.2967 23.01 23.2733C23.0766 23.7933 23.1633 24.3267 23.2633 24.8767C25.56 24.41 28.0233 24.0367 30.6366 23.7767C32.0812 21.754 33.6288 19.807 35.2733 17.9433C34.8609 17.5927 34.4396 17.2526 34.01 16.9233C29.2233 13.26 26.3066 13.2667 25 14.02ZM55 14.02C53.6966 13.2667 50.7766 13.2633 45.99 16.9233C45.5614 17.2526 45.1413 17.5927 44.73 17.9433C46.2833 19.6967 47.8366 21.6467 49.3633 23.7767C51.9767 24.0367 54.4433 24.41 56.74 24.8767C56.8368 24.3455 56.9202 23.812 56.99 23.2767C57.77 17.3 56.3066 14.7733 55 14.02Z" fill="white"/>
</svg>
