<svg width="80" height="90" viewBox="0 0 80 90" fill="none" xmlns="http://www.w3.org/2000/svg">
<path d="M55.1334 26.0661C52.45 17.2595 46.68 11.1712 40 11.1712C30.7534 11.1712 23.2567 20.972 23.2567 35.3605C23.2567 42.6441 28.53 52.9625 31.63 57.6879" stroke="#F8F8F8" stroke-width="2" stroke-linecap="round" stroke-linejoin="round"/>
<path d="M15.7034 44.6065C10.1834 51.5959 8.32336 60.1903 11.6667 66.6174C16.29 75.5171 28.7934 77.1593 40.0034 69.9688C45.68 66.3232 49.5867 57.4496 51.7234 52.1023" stroke="#F8F8F8" stroke-width="2" stroke-linecap="round" stroke-linejoin="round"/>
<path d="M50.0467 74.4372C58.4167 74.4372 65.1234 72.8062 68.3367 66.6174C72.96 57.7177 67.62 44.6735 56.4067 37.483C50.7334 33.8375 41.8834 32.8842 36.65 33.4986" stroke="#F8F8F8" stroke-width="2" stroke-linecap="round" stroke-linejoin="round"/>
<path d="M34.9767 36.7234C36.5767 37.7511 38.6267 37.1404 39.55 35.3605C39.7696 34.9373 39.9121 34.4699 39.9694 33.985C40.0267 33.5001 39.9977 33.0073 39.884 32.535C39.7704 32.0627 39.5743 31.6201 39.307 31.2327C39.0398 30.8453 38.7066 30.5207 38.3267 30.2776C37.5576 29.7826 36.6442 29.6481 35.7865 29.9035C34.9288 30.1589 34.1966 30.7835 33.7501 31.6405C33.5307 32.0639 33.3883 32.5315 33.3313 33.0166C33.2742 33.5016 33.3035 33.9945 33.4175 34.4668C33.5315 34.9392 33.7279 35.3817 33.9955 35.7689C34.2631 36.1562 34.5965 36.4806 34.9767 36.7234Z" stroke="#F8F8F8" stroke-width="2" stroke-linecap="round" stroke-linejoin="round"/>
<path d="M35 57.7177C35 57.7177 33.5077 57.7177 31.6667 57.7177C29.8258 57.7177 28.3334 57.7177 28.3334 57.7177C28.3334 57.7177 29.8258 57.7177 31.6667 57.7177C33.5077 57.7177 35 57.7177 35 57.7177Z" stroke="#F8F8F8" stroke-width="2" stroke-linecap="round" stroke-linejoin="round"/>
<path d="M55 52.1321C55 52.1321 53.5077 52.1321 51.6667 52.1321C49.8258 52.1321 48.3334 52.1321 48.3334 52.1321C48.3334 52.1321 49.8258 52.1321 51.6667 52.1321C53.5077 52.1321 55 52.1321 55 52.1321Z" stroke="#F8F8F8" stroke-width="2" stroke-linecap="round" stroke-linejoin="round"/>
</svg>
