<svg width="30" height="30" viewBox="0 0 30 30" fill="none" xmlns="http://www.w3.org/2000/svg">
<path d="M29.9851 22.654C29.7193 24.6826 28.7259 26.5457 27.1896 27.897C25.6533 29.2482 23.6785 29.9955 21.6325 30C9.70459 30 0 20.2954 0 8.36748C0.00451031 6.32149 0.751841 4.34675 2.10305 2.81041C3.45425 1.27407 5.31738 0.280673 7.34605 0.0149171C7.86319 -0.0424227 8.38516 0.0664579 8.83625 0.325769C9.28735 0.585081 9.64411 0.981341 9.85482 1.45709L12.8744 8.50268C13.031 8.86839 13.0938 9.26743 13.0571 9.66357C13.0203 10.0597 12.8852 10.4404 12.664 10.7711L10.1703 14.5868C11.2995 16.8785 13.1602 18.7286 15.4582 19.8447L19.2289 17.336C19.5592 17.1133 19.9409 16.9785 20.3378 16.9443C20.7347 16.9102 21.1338 16.9777 21.4973 17.1407L28.5429 20.1452C29.0187 20.3559 29.4149 20.7127 29.6742 21.1637C29.9335 21.6148 30.0424 22.1368 29.9851 22.654Z" fill="#52D8FF"/>
</svg>
